<svg width="80" height="100" viewBox="0 0 80 100" fill="none" xmlns="http://www.w3.org/2000/svg">
<g clip-path="url(#clip0_56_2)">
<path d="M12.5 29.3932C12.5 26.811 14.754 24.6131 17.5013 24.6131C20.2486 24.6131 22.4033 26.811 22.4033 29.3932V63.6168C22.4033 74.5151 28.5784 81.4931 40.0496 81.4931C51.5208 81.4931 57.5995 74.5151 57.5995 63.6168V29.3932C57.5995 26.811 59.8535 24.6131 62.5979 24.6131C65.3424 24.6131 67.5 26.811 67.5 29.3932V63.8076C67.5 79.6767 58.382 89.9999 40.0496 89.9999C21.7172 89.9999 12.5 79.5799 12.5 63.9016V29.3904V29.3932Z" fill="#5ACC17"/>
<path d="M44.4952 57.2305C43.4093 57.2305 42.4794 57.9907 42.2922 59.033C41.5863 62.9892 38.8616 64.6066 35.414 64.6066C34.9236 64.6066 34.6287 64.5098 34.4331 64.5098C32.5703 64.5098 31.0989 66.3262 31.0989 68.2393C31.0989 70.1525 32.766 71.7753 34.7251 71.8721C35.312 71.9688 35.9017 71.9688 36.4886 71.9688C45.1133 71.9688 50.1798 67.421 51.1267 59.6412C51.2826 58.3612 50.262 57.2305 48.9408 57.2305H44.4895H44.4952Z" fill="#5ACC17"/>
<path d="M45.2437 25.3153C43.5398 25.9926 42.4766 27.6625 42.4766 29.4567V52.3094C42.4766 53.653 43.2846 54.7423 45.8363 54.7423H48.1044C50.9396 54.7423 51.2997 53.653 51.2997 52.3094V29.2964C51.2997 26.3576 48.1895 24.1431 45.2437 25.3125V25.3153Z" fill="#5ACC17"/>
<path d="M49.3774 21.055C51.7873 19.4736 57.6505 10.3973 54.8493 10.0213C53.3835 9.82501 47.1234 11 44.2712 12.7915C41.9662 14.2374 40.6194 16.9108 41.8528 19.3935C43.0861 21.8761 47.1064 22.5479 49.3802 21.055H49.3774Z" fill="#5ACC17"/>
<path d="M52.5812 12.3878C50.8092 14.0494 48.9947 15.5948 46.8598 16.8057C44.7249 18.0166 42.3688 19.3105 40.0241 20.3638C39.6924 20.5131 39.9816 20.9886 40.3105 20.8421C42.6921 19.7722 44.9971 18.5115 47.2596 17.2177C49.3888 16.0012 51.2062 14.4392 52.981 12.7776C53.2447 12.5316 52.8421 12.139 52.5812 12.3878Z" fill="white"/>
<path d="M43.3867 16.5818C43.2506 17.4112 43.4207 18.2738 43.9537 18.9456C44.4584 19.5787 45.2636 19.974 46.0915 19.9519C46.4544 19.9409 46.4572 19.3879 46.0915 19.399C45.4337 19.4183 44.8043 19.1142 44.3988 18.6111C43.9934 18.1079 43.8261 17.378 43.931 16.7283C43.9566 16.5818 43.8913 16.4298 43.7326 16.3883C43.5965 16.3523 43.4094 16.4325 43.3838 16.5818H43.3867Z" fill="white"/>
<path d="M45.788 15.7856C45.7767 16.0952 45.8192 16.4132 45.9156 16.709C46.0092 16.9882 46.1424 17.2785 46.3806 17.472C46.6188 17.6655 46.8853 17.7485 47.1688 17.8093C47.5033 17.8839 47.8407 17.9309 48.181 17.9779C48.3312 18.0001 48.4843 17.942 48.5297 17.7844C48.5665 17.6545 48.4843 17.4665 48.3312 17.4444C48.0335 17.4029 47.7387 17.3614 47.4438 17.3006C47.2113 17.2536 46.9675 17.2094 46.7775 17.0739C46.6244 16.9633 46.5252 16.7477 46.4628 16.5597C46.3778 16.3053 46.3437 16.0482 46.3551 15.7828C46.3608 15.6335 46.2218 15.5063 46.0716 15.5063C45.9128 15.5063 45.7937 15.6335 45.788 15.7828V15.7856Z" fill="white"/>
<path d="M48.5099 14.2982C48.3937 14.8732 48.5496 15.4676 48.9635 15.8962C49.1535 16.0952 49.3888 16.2417 49.6468 16.3413C49.9332 16.4491 50.2422 16.4823 50.5456 16.5099C50.6987 16.5237 50.8291 16.3717 50.8291 16.2334C50.8291 16.0731 50.6987 15.9708 50.5456 15.957C50.3074 15.9349 50.0806 15.91 49.8453 15.827C49.6723 15.7662 49.5164 15.6612 49.3831 15.5285C49.1081 15.252 48.9777 14.8262 49.0571 14.4475C49.0883 14.301 49.0146 14.1489 48.8586 14.1074C48.7197 14.0687 48.5411 14.1544 48.5099 14.301V14.2982Z" fill="white"/>
<path d="M50.8376 12.7666C50.7157 13.1951 50.8121 13.6623 51.0021 14.0576C51.0985 14.2539 51.2572 14.3977 51.4557 14.4945C51.674 14.5995 51.8895 14.6908 52.1361 14.7073C52.2836 14.7184 52.4253 14.5719 52.4197 14.4309C52.4111 14.2733 52.2949 14.1655 52.1361 14.1544C52.1191 14.1544 52.0936 14.1489 52.1248 14.1544C52.1021 14.1516 52.0766 14.1461 52.0539 14.1378C52.0114 14.1268 51.9689 14.1129 51.9292 14.0964C51.9178 14.0936 51.8866 14.0798 51.915 14.0908C51.898 14.0825 51.8781 14.0742 51.8611 14.0659C51.8214 14.0494 51.7846 14.03 51.7449 14.0134C51.7052 13.9968 51.6712 13.9775 51.6371 13.9554C51.623 13.9471 51.6031 13.9332 51.6286 13.9526C51.6116 13.9388 51.5946 13.9249 51.5804 13.9084C51.5776 13.9056 51.5436 13.8669 51.5606 13.889C51.5804 13.9167 51.5436 13.8614 51.5379 13.8558C51.5294 13.842 51.5209 13.8254 51.5124 13.8116C51.5096 13.8061 51.4784 13.7452 51.4925 13.7757C51.5039 13.8005 51.484 13.7535 51.4812 13.7508C51.4755 13.7342 51.4699 13.7176 51.4614 13.701C51.4472 13.6595 51.433 13.6208 51.4188 13.5794C51.3933 13.4964 51.3735 13.4135 51.3593 13.3278C51.3593 13.314 51.3536 13.2863 51.3593 13.3167C51.3593 13.2918 51.3536 13.2697 51.3536 13.2448C51.3536 13.2061 51.3508 13.1702 51.3536 13.1315C51.3536 13.1066 51.3536 13.0845 51.3565 13.0624C51.3565 13.0458 51.3593 13.0209 51.3565 13.0513C51.3621 13.0043 51.3735 12.9573 51.3876 12.9131C51.4273 12.7748 51.3394 12.6062 51.1892 12.573C51.0389 12.5399 50.883 12.6173 50.8404 12.7666H50.8376Z" fill="white"/>
<path d="M52.2524 11.7713C52.2637 12.0837 52.3913 12.3878 52.6209 12.6089C52.8506 12.8301 53.1738 12.9573 53.4999 12.9573C53.6473 12.9573 53.789 12.8301 53.7834 12.6808C53.7777 12.5315 53.6586 12.4044 53.4999 12.4044C53.4573 12.4044 53.4148 12.4044 53.3723 12.3961L53.4488 12.4071C53.3978 12.4016 53.3496 12.3905 53.3014 12.3767C53.2787 12.3712 53.256 12.3629 53.2333 12.3546C53.2277 12.3546 53.1766 12.3325 53.222 12.3518C53.2674 12.3712 53.222 12.3518 53.2135 12.3463C53.1681 12.3242 53.1256 12.2993 53.0831 12.2717C53.0661 12.2606 53.0377 12.233 53.0973 12.2827C53.0888 12.2772 53.0802 12.2689 53.0717 12.2634C53.0519 12.2468 53.032 12.2302 53.015 12.2108C52.998 12.1942 52.9838 12.1777 52.9668 12.1611C52.9583 12.1528 52.947 12.1417 52.9413 12.1307C52.9442 12.1362 52.9782 12.1804 52.9583 12.15C52.93 12.1113 52.9045 12.0698 52.8818 12.0284C52.8761 12.0173 52.8704 12.0063 52.8648 11.9952C52.8421 11.9537 52.8846 12.045 52.8733 12.0118C52.8648 11.9897 52.8563 11.9703 52.8506 11.9482C52.8364 11.9012 52.8251 11.8514 52.8166 11.8017L52.8279 11.8763C52.8222 11.8404 52.8194 11.8072 52.8194 11.7713C52.8137 11.6275 52.6918 11.4893 52.5359 11.4948C52.38 11.5003 52.2467 11.6164 52.2524 11.7713Z" fill="white"/>
<path d="M53.7832 11.3317C54.149 11.3317 54.149 10.7788 53.7832 10.7788C53.4175 10.7788 53.4175 11.3317 53.7832 11.3317Z" fill="#5ACC17"/>
</g>
<defs>
<clipPath id="clip0_56_2">
<rect width="55" height="80" fill="white" transform="translate(12.5 10)"/>
</clipPath>
</defs>
</svg>
